Coordinates
version=1
nRows=12
nColumns=34
inDegrees=yes

Units are S.I. units (second, meters, Newtons, ...)
If the header above contains a line with 'inDegrees', this indicates whether rotational values are in degrees (yes) or radians (no).

endheader
time	pelvis_tilt	pelvis_list	pelvis_rotation	pelvis_tx	pelvis_ty	pelvis_tz	hip_flexion_r	hip_adduction_r	hip_rotation_r	knee_angle_r	ankle_angle_r	subtalar_angle_r	mtp_angle_r	hip_flexion_l	hip_adduction_l	hip_rotation_l	knee_angle_l	ankle_angle_l	subtalar_angle_l	mtp_angle_l	lumbar_extension	lumbar_bending	lumbar_rotation	arm_flex_r	arm_add_r	arm_rot_r	elbow_flex_r	pro_sup_r	arm_flex_l	arm_add_l	arm_rot_l	elbow_flex_l	pro_sup_l
      0.00000000	     -1.75231518	     -0.29071075	     -6.69514391	      1.78850150	      0.87778362	      0.01045647	      2.04985600	     -4.37857138	     -4.14925941	      6.53855585	      2.94015806	    -14.38572515	      0.00000000	      0.21694791	     -3.13022533	     -1.15311738	      4.65805708	      6.62989415	     -8.09969767	      0.00000000	     -7.40867825	      2.39742247	     -1.64558626	      7.62129377	    -10.10156167	     35.72384832	     84.96196519	     94.75174551	      2.42712188	     -8.22415189	     29.30000620	     75.63205994	     87.56523047
      0.01666670	     -1.98682124	     -0.29553741	     -6.53618896	      1.78875935	      0.87828191	      0.00929590	      2.41520245	     -4.09927647	     -2.24932485	      6.77507157	      5.88732903	    -14.33607301	      0.00000000	      1.06650351	     -2.86171138	     -0.01644742	      4.61388385	      7.34613226	     -7.72057181	      0.00000000	     -6.48311039	      3.00414477	     -1.93046611	      7.36911559	    -10.08667157	     35.39648898	     84.69837588	     94.64293505	      2.20246155	     -8.79379508	     29.33200971	     76.01766976	     87.45944466
      0.03333330	     -2.17767976	      0.36115394	     -6.69323177	      1.78792794	      0.87856598	      0.01009276	      2.56595116	     -4.81078552	     -2.26682258	      6.23366488	      6.08517587	    -14.09599434	      0.00000000	      1.45704039	     -2.31964284	      0.08602888	      4.59466768	      7.21298061	     -7.64447547	      0.00000000	     -6.18591769	      2.06369745	     -1.54560027	      7.35445671	     -9.83665213	     35.51377577	     84.50915010	     94.63241844	      2.74339171	     -9.54905685	     28.93332070	     76.01621245	     87.37981147
      0.05000000	     -2.07563976	      0.86168783	     -6.63133754	      1.78785811	      0.87992126	      0.01054317	      2.40842329	     -5.43410624	     -2.10385603	      6.02484540	      6.41589546	    -13.97214546	      0.00000000	      1.07498033	     -1.74821484	      0.57787443	      4.06097411	      7.17155139	     -7.76672376	      0.00000000	     -6.17307125	      1.37125185	     -1.21287923	      6.97007717	     -9.66103555	     35.87686425	     84.15712595	     94.65374207	      2.92309086	     -9.86323221	     28.87446736	     75.79221371	     87.34073460
      0.06666670	     -1.36008049	      0.99644668	     -6.69239827	      1.78759653	      0.88039467	      0.01066196	      1.48910554	     -5.65818887	     -1.93298461	      5.69644854	      6.80980642	    -13.92173246	      0.00000000	     -0.10000317	     -1.48126850	      1.28196863	      3.27199091	      6.44697180	     -8.94318554	      0.00000000	     -6.96524670	      1.14015851	     -0.80398581	      7.46057560	     -9.68673642	     36.65899789	     83.99884357	     94.74396882	      3.64029283	     -9.96704494	     29.67348358	     75.13971182	     87.37692787
      0.08333330	     -0.96550226	      1.04142465	     -6.52650202	      1.78727186	      0.87992822	      0.01062797	      0.87474613	     -5.70690470	     -1.74808854	      5.36770901	      6.82284054	    -14.27985672	      0.00000000	     -0.58285197	     -1.36761781	      2.12976950	      3.08196839	      6.32120790	     -9.87455250	      0.00000000	     -7.47687576	      1.03497871	     -0.66147502	      7.71489598	     -9.80403476	     37.29322187	     84.88037268	     94.82070035	      4.20330445	    -10.13921533	     30.49160566	     75.17354223	     87.49294720
      0.10000000	     -0.67405901	      1.06459627	     -6.47868668	      1.78715290	      0.87882281	      0.01105831	      0.45325652	     -5.74291403	     -1.38464008	      5.16836287	      6.82712051	    -14.80869141	      0.00000000	     -0.95712159	     -1.30926098	      2.61285397	      2.90155456	      6.08667349	    -10.51447903	      0.00000000	     -7.82020526	      0.94264424	     -0.42419149	      7.88340178	     -9.91733834	     37.68247301	     85.61186924	     94.86972268	      4.62555466	    -10.28596234	     31.10712073	     75.29151530	     87.62056965
      0.11666670	     -0.63714543	      1.07237992	     -6.41238514	      1.78715209	      0.87858082	      0.01140393	      0.37189765	     -5.74477567	     -1.32836558	      5.11007117	      6.86677804	    -14.84669958	      0.00000000	     -0.95881871	     -1.33693411	      2.69829536	      2.92079322	      6.07379558	    -10.52130780	      0.00000000	     -7.75131875	      0.88933730	     -0.33874417	      7.94742267	     -9.81976614	     37.72501904	     85.69488420	     94.87281152	      4.67956570	    -10.31132381	     31.10581064	     75.29951601	     87.62422474
      0.13333330	     -0.21683934	      1.06351255	     -6.31012125	      1.78677632	      0.87992351	      0.01121165	     -0.23773180	     -5.76685077	     -0.99588590	      4.81466912	      6.56587678	    -15.86887397	      0.00000000	     -1.41124815	     -1.32299734	      3.42215505	      2.86723194	      5.79661730	    -11.35265495	      0.00000000	     -8.36997340	      0.86027326	     -0.32359068	      8.13904117	    -10.16295377	     38.44712005	     86.67955970	     94.91796708	      5.16721076	    -10.48276450	     31.63478608	     75.20454522	     87.69826995
      0.15000000	     -0.20879236	      1.06890694	     -6.30790605	      1.78663631	      0.88067534	      0.01094585	     -0.23362760	     -5.79345471	     -0.99375966	      4.80605352	      6.56420250	    -15.87244857	      0.00000000	     -1.41125362	     -1.36422174	      3.42523739	      2.87130501	      5.78999714	    -11.35400254	      0.00000000	     -8.37098323	      0.85818905	     -0.31614794	      8.13328152	    -10.15608021	     38.45532597	     86.68169970	     94.91829234	      5.17176833	    -10.48890148	     31.63253777	     75.20435802	     87.69815371
      0.16666670	     -0.16500303	      1.03726086	     -6.26675514	      1.78655703	      0.88091444	      0.01081621	     -0.33025084	     -5.73969739	     -1.00081304	      4.68408097	      6.49880936	    -15.98584513	      0.00000000	     -1.40752623	     -1.45954193	      3.51820314	      2.98165990	      5.59285495	    -11.37123093	      0.00000000	     -8.47310485	      0.85857710	     -0.14370617	      7.94375605	    -10.01648477	     38.72556153	     86.74095025	     94.92949259	      5.35159322	    -10.66750726	     31.54563053	     75.18073790	     87.69088512
      0.18333330	      0.30825869	      0.93764343	     -6.19118481	      1.78652562	      0.88137721	      0.00979824	     -1.03986597	     -5.68855920	     -0.62844255	      4.28150315	      5.49435193	    -17.16321415	      0.00000000	     -2.05970279	     -1.49791899	      4.12609350	      2.71408337	      4.84232497	    -12.52406312	      0.00000000	     -9.16596585	      0.97688753	     -0.12719014	      8.29516693	    -10.63220086	     39.80659801	     87.53616245	     94.93696701	      5.84570773	    -10.59472427	     31.98759547	     74.88097959	     87.65176099
